<?xml version="1.0" standalone="no"?>
<!DOCTYPE svg PUBLIC "-//W3C//DTD SVG 20010904//EN"
 "http://www.w3.org/TR/2001/REC-SVG-20010904/DTD/svg10.dtd">
<svg version="1.0" xmlns="http://www.w3.org/2000/svg"
 width="700.000000pt" height="700.000000pt" viewBox="0 0 700.000000 700.000000"
 preserveAspectRatio="xMidYMid meet">
<metadata>
Created by potrace 1.11, written by Peter Selinger 2001-2013
</metadata>
<g transform="translate(0.000000,700.000000) scale(0.100000,-0.100000)"
fill="#000000" stroke="none">
<path d="M2795 6054 c-215 -39 -399 -144 -540 -310 -132 -155 -437 -647 -419
-676 3 -4 0 -8 -5 -8 -6 0 -10 -3 -9 -7 4 -16 -14 -88 -25 -102 -10 -12 -9
-13 3 -6 12 7 13 6 3 -6 -10 -12 -10 -18 0 -29 9 -10 9 -11 0 -6 -8 5 -13 1
-13 -9 0 -9 -4 -14 -8 -11 -4 2 -8 -4 -8 -14 0 -15 3 -17 15 -7 11 8 10 3 -3
-17 -13 -20 -15 -31 -8 -34 7 -2 12 -8 12 -13 0 -6 -4 -8 -8 -5 -5 3 -9 -1 -9
-9 0 -8 5 -15 11 -15 7 0 7 -3 0 -8 -9 -5 -8 -11 2 -20 12 -10 14 -10 14 2 0
8 4 17 9 20 4 3 7 -5 6 -17 -2 -17 3 -22 22 -23 22 -2 23 -1 6 11 -15 11 -16
16 -5 27 7 7 13 9 12 3 -5 -24 1 -27 19 -11 18 16 20 16 35 -6 10 -15 16 -17
16 -8 0 9 3 11 8 5 10 -15 32 -17 46 -5 7 5 16 7 19 3 4 -3 7 0 8 8 0 8 4 5 8
-6 5 -11 9 -292 9 -625 0 -333 1 -618 1 -635 l1 -29 32 34 c17 19 73 80 123
136 l93 101 0 394 c0 217 1 414 1 438 l1 44 36 -37 c46 -48 128 -108 200 -146
64 -35 207 -85 270 -94 l42 -6 90 98 c108 116 133 144 130 147 -2 2 -32 0 -68
-4 -262 -26 -540 136 -635 370 l-19 47 -58 -2 c-32 0 -58 1 -58 3 0 2 19 31
43 65 51 72 67 107 67 144 0 38 27 133 41 146 9 8 10 7 4 -3 -6 -10 -4 -12 6
-5 8 5 18 9 23 9 5 0 11 7 13 15 4 13 3 13 -7 0 -9 -12 -11 -12 -8 -1 2 8 12
15 21 17 11 1 15 -2 11 -9 -4 -7 3 -2 15 11 22 22 37 30 27 13 -3 -5 1 -11 8
-14 10 -4 13 0 11 14 -5 23 -1 24 18 4 13 -13 16 -13 21 1 3 8 2 12 -3 9 -5
-3 -13 0 -17 7 -4 7 -4 10 1 6 4 -4 13 -4 19 2 7 5 17 5 26 -2 12 -8 11 -8 -5
-3 -14 4 -17 3 -9 -5 16 -16 48 -2 34 15 -8 9 -8 15 0 20 6 4 9 1 8 -6 -3 -12
1 -14 33 -18 8 -1 7 -7 -2 -18 -13 -16 -12 -17 3 -4 10 7 15 17 12 22 -9 15 8
10 29 -8 19 -17 20 -17 9 3 -9 18 -8 20 14 20 16 0 23 -5 20 -13 -4 -10 -1
-10 14 -1 10 7 16 17 13 23 -3 5 0 4 8 -3 12 -11 12 -14 -1 -23 -12 -9 -12
-10 4 -5 10 4 24 2 31 -4 9 -8 15 -8 20 0 3 6 11 7 17 4 6 -4 9 -3 5 2 -3 5 8
9 23 9 16 1 26 -3 23 -8 -3 -5 5 -6 18 -2 24 8 24 8 4 -11 -11 -11 -16 -16
-11 -11 6 4 17 7 26 7 13 0 13 -2 0 -11 -12 -9 -12 -10 3 -5 10 3 21 6 24 6 3
0 -1 8 -8 18 -13 16 -13 16 7 -1 11 -9 24 -14 29 -10 4 5 5 2 1 -5 -4 -7 -11
-10 -16 -7 -5 3 -12 0 -16 -7 -4 -7 -4 -10 1 -6 4 4 15 2 23 -5 13 -9 14 -9 8
1 -4 6 -2 12 3 12 6 0 11 -4 11 -10 0 -6 3 -9 8 -8 16 4 52 -14 52 -27 0 -7 7
-15 15 -19 15 -5 17 14 2 25 -5 3 -2 9 5 12 9 3 15 -3 16 -19 3 -47 5 -54 15
-54 5 0 7 7 4 14 -4 10 -1 13 8 9 8 -3 12 -9 9 -14 -3 -5 2 -9 10 -9 9 0 16
-4 16 -9 0 -5 -10 -7 -22 -5 -21 4 -21 4 -3 -5 11 -4 24 -6 28 -4 13 8 35 -28
30 -51 -2 -15 -1 -17 4 -6 5 8 14 16 22 18 10 2 12 -1 5 -10 -18 -23 -1 -68
25 -67 10 0 11 2 3 6 -6 2 -9 10 -6 15 4 6 2 8 -4 4 -6 -3 -13 -2 -17 4 -3 5
1 10 9 10 18 0 35 -29 28 -49 -3 -10 0 -11 9 -5 12 7 12 5 0 -9 -8 -10 -9 -17
-3 -17 6 0 9 -9 7 -20 -3 -17 -1 -19 17 -9 15 8 19 8 14 0 -4 -6 -2 -11 5 -11
7 0 9 -3 6 -7 -4 -3 1 -12 11 -20 15 -12 13 -12 -10 -2 -15 7 -25 16 -21 22 4
6 1 7 -7 2 -10 -6 -10 -10 3 -20 13 -9 14 -15 4 -25 -10 -12 -9 -12 6 -1 15
12 17 11 17 -7 0 -11 -5 -22 -12 -24 -7 -3 -5 -7 6 -11 9 -4 15 -3 12 1 -3 5
1 9 9 9 10 0 12 -4 5 -12 -5 -7 -6 -16 -2 -20 4 -5 3 -6 -3 -3 -6 4 -10 -11
-10 -37 0 -34 3 -41 13 -33 7 6 15 8 19 4 3 -3 1 -6 -6 -6 -9 0 -11 -8 -8 -21
4 -16 2 -19 -11 -14 -14 5 -15 4 -4 -6 6 -7 12 -17 12 -22 0 -4 -6 -5 -12 -1
-10 6 -10 4 0 -8 9 -11 10 -18 2 -23 -7 -4 -7 -13 1 -27 9 -16 8 -19 -2 -13
-9 6 -11 3 -6 -8 4 -10 1 -17 -6 -17 -8 0 -6 -4 3 -10 12 -8 12 -10 1 -10 -8
0 -11 -3 -8 -7 4 -3 2 -12 -4 -20 -6 -7 -8 -13 -5 -13 10 0 -35 -64 -79 -113
-110 -121 -308 -336 -417 -452 -31 -33 -65 -70 -75 -82 -11 -12 -69 -75 -129
-139 -60 -64 -117 -126 -127 -138 -10 -12 -42 -46 -70 -76 -29 -30 -106 -114
-172 -185 -66 -72 -139 -150 -163 -175 -44 -46 -272 -381 -272 -400 0 -5 -4
-10 -9 -10 -14 0 -19 -23 -9 -45 8 -18 8 -18 4 3 -2 12 0 22 5 22 5 0 9 -6 9
-14 0 -8 4 -17 9 -20 5 -4 7 4 4 16 l-5 23 16 -22 c10 -13 23 -23 29 -22 9 0
9 2 0 5 -7 3 -9 12 -6 20 4 11 9 9 25 -9 11 -12 17 -17 14 -12 -2 6 -1 17 5
25 7 12 9 9 10 -10 l1 -25 8 25 c4 14 9 18 9 10 1 -13 2 -13 11 0 8 12 10 10
11 -10 l1 -25 8 25 c5 16 8 19 9 8 1 -12 6 -15 18 -11 12 5 14 3 8 -8 -8 -12
-6 -12 8 0 13 10 20 11 31 2 10 -9 16 -9 21 -1 5 8 10 8 20 0 9 -8 15 -8 20 0
9 14 27 13 20 -2 -4 -7 0 -4 9 6 8 10 13 24 9 30 -3 6 -2 7 3 3 5 -5 9 -14 9
-20 0 -14 37 -16 47 -3 9 13 40 17 32 5 -3 -5 -9 -7 -13 -5 -4 3 -8 -2 -8 -10
0 -10 4 -11 11 -4 14 14 29 13 21 -2 -4 -7 2 -4 12 8 10 11 23 20 28 19 25 -4
44 -18 38 -29 -4 -7 -2 -7 7 1 11 10 11 15 -1 30 -13 16 -12 17 3 5 9 -7 18
-9 20 -5 3 4 3 3 2 -4 -4 -18 22 -37 31 -22 6 8 10 7 16 -2 6 -10 9 -11 9 -2
0 15 21 13 32 -2 5 -6 8 -6 8 1 0 6 15 10 35 9 25 -1 34 2 31 11 -5 12 7 12
36 -1 10 -4 15 -12 11 -19 -4 -7 -2 -7 7 1 11 10 11 15 -1 30 -13 16 -12 17 3
5 13 -10 17 -10 20 0 3 8 7 6 11 -6 5 -12 3 -15 -6 -10 -8 5 -7 2 2 -9 10 -13
17 -14 26 -7 9 8 15 8 20 0 3 -6 11 -8 16 -4 15 9 1 23 -20 19 -10 -2 -18 3
-18 11 0 10 4 11 14 3 9 -8 13 -8 13 0 0 6 8 3 18 -6 11 -10 17 -22 14 -27 -3
-5 0 -6 7 -2 7 5 10 14 7 21 -5 14 18 14 31 0 5 -4 1 -5 -7 0 -8 5 -12 4 -7 0
12 -14 48 -13 43 1 -5 12 7 12 36 -1 10 -4 15 -12 11 -18 -4 -6 -1 -7 6 -3 7
5 10 14 7 22 -8 21 8 17 22 -7 10 -16 16 -18 27 -9 9 8 15 8 20 0 3 -6 11 -8
16 -4 5 3 7 10 4 15 -3 5 1 6 9 3 9 -3 13 -11 9 -18 -4 -7 -2 -7 7 1 11 10 11
15 -1 29 -12 16 -12 17 1 9 20 -13 33 -13 43 0 5 6 7 4 4 -5 -2 -8 -11 -14
-18 -12 -8 2 -10 0 -6 -5 11 -11 40 -10 49 1 9 13 40 17 32 5 -3 -5 -9 -7 -13
-5 -4 3 -8 -2 -8 -10 0 -10 4 -11 11 -4 14 14 28 13 21 -2 -4 -7 1 -4 9 6 17
22 43 29 51 16 3 -5 -4 -7 -16 -5 -17 4 -19 2 -9 -11 9 -10 16 -11 25 -4 7 6
15 6 22 -1 8 -8 13 -8 17 0 10 15 29 14 21 -1 -4 -7 0 -4 9 6 8 10 13 24 9 30
-3 6 -2 7 3 3 5 -5 9 -14 9 -20 0 -16 43 -16 50 1 3 8 8 12 12 9 3 -4 14 -2
24 4 15 7 17 6 13 -5 -3 -8 -13 -13 -23 -11 -10 2 -18 -3 -18 -11 0 -10 4 -11
13 -3 8 7 14 6 17 -3 4 -11 6 -10 6 0 1 7 6 10 13 6 7 -4 8 -3 4 4 -5 8 -2 10
8 6 9 -3 13 -11 9 -18 -4 -7 -2 -7 7 1 11 10 11 15 -1 30 -13 16 -12 17 3 5
13 -10 17 -10 20 0 3 8 7 6 11 -6 5 -12 3 -15 -6 -10 -8 5 -7 2 2 -9 10 -13
17 -15 27 -6 13 11 18 5 15 -14 -1 -5 2 -6 6 -4 5 3 15 -2 23 -11 13 -14 12
-15 -3 -9 -9 3 -19 1 -23 -5 -5 -7 -2 -8 6 -3 10 6 12 4 7 -8 -7 -19 4 -22 20
-6 8 8 13 8 18 0 3 -6 3 -11 -2 -10 -19 3 -23 -2 -13 -20 8 -16 6 -22 -6 -29
-15 -8 -15 -10 0 -15 10 -4 15 -3 11 3 -3 6 -1 10 4 10 14 0 14 -17 1 -25 -5
-3 -10 -12 -10 -18 0 -7 4 -6 10 3 8 12 10 9 10 -12 0 -16 5 -28 10 -28 6 0
10 -8 10 -17 0 -16 2 -16 11 -3 9 13 10 12 5 -3 -3 -11 0 -20 9 -23 8 -4 15
-11 15 -16 0 -6 -6 -5 -15 2 -8 7 -15 9 -15 4 0 -5 -5 -2 -11 6 -9 13 -10 13
-6 0 2 -8 10 -14 16 -13 6 2 11 -4 11 -13 0 -8 4 -12 10 -9 14 9 13 -8 -2 -23
-12 -12 -10 -13 15 -16 6 0 12 -7 12 -13 0 -7 3 -13 8 -13 4 0 12 0 18 0 5 0
7 5 3 12 -5 7 -3 8 5 4 9 -6 8 -12 -4 -26 -11 -12 -13 -20 -5 -25 5 -3 8 -11
4 -16 -3 -5 -2 -9 3 -8 4 1 17 1 28 -1 l20 -1 -20 -9 c-19 -8 -19 -9 3 -9 19
-1 21 -4 12 -20 -7 -14 -7 -22 0 -26 6 -4 10 -3 9 2 -4 22 3 32 20 30 11 0 17
-5 15 -9 -3 -5 -10 -6 -15 -3 -5 4 -9 1 -9 -5 0 -8 9 -10 28 -5 24 6 25 5 9
-7 -16 -12 -16 -15 -2 -36 17 -23 35 -29 35 -12 0 5 -3 9 -7 7 -5 -1 -9 2 -10
7 -1 5 -7 12 -15 17 -9 6 -6 8 9 6 12 0 21 -6 20 -12 -1 -5 4 -9 11 -7 8 1 11
-2 8 -7 -4 -5 2 -15 11 -21 16 -10 16 -11 1 -6 -12 3 -15 1 -12 -9 3 -8 12
-11 20 -8 8 3 22 -3 30 -13 9 -11 13 -14 10 -7 -4 6 -2 15 4 18 6 4 10 3 9 -2
-4 -21 2 -33 17 -33 9 0 12 -5 8 -12 -5 -8 -2 -9 9 -5 11 4 17 1 17 -9 0 -8 5
-12 10 -9 6 4 8 11 5 16 -4 5 2 6 11 2 11 -4 13 -8 6 -11 -22 -7 -12 -20 11
-14 18 4 20 3 12 -9 -5 -8 -1 -6 9 6 17 18 19 18 13 1 -6 -16 -3 -17 20 -13
16 4 22 4 16 1 -7 -3 -13 -10 -13 -15 0 -6 7 -6 19 0 22 12 32 5 24 -17 -4 -9
-2 -13 5 -9 6 4 13 -1 15 -10 3 -10 4 -1 2 20 -2 21 0 35 6 31 5 -3 7 -9 4
-14 -3 -5 4 -18 16 -29 17 -15 26 -18 41 -10 14 7 22 6 34 -6 19 -18 31 -20
15 -2 -8 10 -7 14 4 14 8 0 15 -5 15 -10 0 -6 3 -7 6 -4 4 3 16 1 28 -5 30
-17 45 -18 40 -3 -8 20 13 27 36 13 17 -11 22 -11 29 0 7 11 9 10 14 -2 5 -12
14 -15 34 -10 16 4 30 11 31 16 2 4 8 8 14 8 6 0 8 -6 5 -13 -3 -8 1 -14 9
-14 7 0 11 4 8 9 -3 4 0 16 6 25 11 17 11 17 6 1 -3 -10 -1 -19 4 -19 40 -5
45 -3 43 21 -1 14 1 19 3 12 3 -6 11 -9 16 -6 6 4 8 3 5 -3 -3 -5 0 -10 8 -10
8 0 13 3 11 6 -2 3 2 12 10 19 12 11 14 9 15 -10 1 -22 1 -22 9 2 4 14 8 19 9
12 1 -7 6 -10 11 -7 6 4 7 12 3 18 -4 7 2 5 12 -3 17 -14 18 -13 12 4 -7 17
-6 17 10 5 9 -8 14 -9 11 -4 -3 6 1 17 10 25 14 13 15 12 9 -3 -3 -9 -2 -17 3
-17 6 0 10 8 10 18 0 14 2 15 10 2 8 -13 10 -12 10 3 0 10 8 17 21 17 13 0 18
4 13 13 -5 7 0 6 11 -3 11 -9 16 -10 11 -2 -6 11 5 17 26 13 5 0 7 2 5 7 -1 4
1 7 5 7 4 0 15 10 23 23 9 12 23 22 31 22 8 0 14 8 14 18 0 14 2 15 10 2 9
-13 14 -7 11 13 0 4 3 7 9 7 23 0 110 108 244 305 170 248 205 310 245 430
114 345 10 717 -264 937 -74 60 -208 130 -275 143 -149 30 -296 31 -392 1 -27
-8 -48 -12 -48 -10 0 3 -9 0 -20 -6 -11 -6 -20 -9 -20 -6 0 3 37 60 82 128
302 455 611 925 633 962 l25 43 -110 71 c-61 40 -114 72 -118 72 -11 -1 -62
-75 -625 -918 -294 -438 -560 -843 -591 -899 l-58 -103 -401 0 -401 0 35 37
c18 20 49 51 67 70 19 18 32 33 29 33 -2 0 21 26 52 58 59 61 217 232 248 268
10 12 40 47 67 78 176 204 487 657 557 811 26 59 63 171 74 230 15 74 12 252
-6 335 -54 259 -239 489 -474 589 -144 61 -368 84 -530 55z m-15 -634 c0 -16
-17 -20 -28 -7 -8 10 -6 13 9 14 10 1 19 -2 19 -7z m301 -107 c13 -16 12 -17
-3 -4 -17 13 -22 21 -14 21 2 0 10 -8 17 -17z m80 -80 c13 -16 12 -17 -3 -4
-10 7 -18 15 -18 17 0 8 8 3 21 -13z m85 -132 c-4 -5 -1 -11 6 -13 8 -3 6 -6
-4 -10 -11 -5 -15 -2 -13 10 5 23 4 22 11 22 3 0 3 -4 0 -9z m49 -200 c3 -5 2
-12 -3 -15 -5 -3 -9 1 -9 9 0 17 3 19 12 6z m-1345 -142 c0 -5 5 -7 12 -3 7 4
8 3 4 -5 -6 -9 -11 -9 -22 0 -17 14 -18 19 -4 19 6 0 10 -5 10 -11z m2295
-1188 c-7 -12 29 -33 39 -24 6 6 10 -12 7 -30 -1 -5 3 -6 9 -2 5 3 8 18 5 33
l-5 27 11 -25 c7 -14 11 -29 10 -33 -1 -5 3 -6 9 -2 6 3 8 11 5 16 -4 5 -2 9
3 9 16 0 21 -27 9 -41 -10 -11 -9 -11 4 -1 9 6 20 8 24 4 5 -4 5 -1 1 6 -4 6
-4 12 1 13 4 0 15 2 24 4 9 1 16 -3 16 -11 0 -10 -4 -11 -14 -3 -8 7 -13 8
-13 1 0 -16 26 -22 40 -9 10 9 14 9 17 -1 3 -6 9 -9 15 -6 6 4 6 -1 -1 -13
-12 -23 -6 -34 16 -26 12 5 12 7 1 15 -10 8 -10 9 2 5 8 -2 16 -14 16 -26 1
-12 5 -25 9 -29 5 -4 5 1 2 11 -8 22 9 23 17 1 4 -9 10 -14 13 -10 4 4 13 -4
20 -16 l14 -23 -6 25 -6 25 15 -25 c9 -14 15 -19 16 -11 0 11 4 10 14 -4 8
-11 12 -25 9 -32 -4 -11 18 -18 48 -15 3 1 6 -5 6 -13 0 -8 -4 -12 -9 -9 -4 3
-8 -1 -8 -10 0 -8 -3 -16 -7 -19 -5 -2 -3 -3 3 -1 5 1 21 -7 35 -17 15 -12 17
-17 7 -13 -11 4 -18 1 -18 -6 0 -6 4 -9 9 -6 4 3 18 -3 30 -13 l21 -18 -23
-11 c-21 -11 -21 -11 6 -7 15 2 25 0 22 -5 -3 -4 1 -11 7 -14 7 -3 2 -4 -12
-1 -14 3 -20 2 -13 -1 7 -3 9 -12 6 -20 -3 -9 1 -14 13 -14 16 0 17 2 4 10 -9
6 -10 10 -3 10 19 0 24 -17 8 -30 -8 -7 -15 -17 -15 -22 0 -5 7 -2 16 6 23 24
27 19 8 -9 -15 -23 -15 -25 0 -25 9 0 16 -3 17 -7 4 -41 3 -61 -3 -57 -3 2 -9
0 -13 -6 -3 -5 1 -10 9 -10 10 0 13 -6 9 -17 -5 -12 -3 -14 8 -9 8 4 3 -2 -11
-14 l-25 -21 25 6 c17 4 21 3 12 -3 -8 -5 -13 -15 -12 -23 4 -29 0 -50 -10
-44 -5 3 -7 0 -4 -9 8 -20 -35 -46 -130 -78 -72 -24 -93 -26 -191 -24 -173 5
-277 49 -396 166 -121 120 -178 260 -174 428 1 48 6 76 14 82 8 4 10 13 6 20
-5 8 -4 11 3 6 6 -3 13 -2 17 4 4 6 11 8 16 5 5 -4 9 1 9 10 0 9 5 13 10 10 6
-4 7 -11 4 -17 -4 -7 -2 -8 5 -4 6 4 9 11 6 16 -2 4 8 10 23 13 15 3 30 0 34
-6 6 -9 8 -9 8 -1 0 18 32 26 43 12 6 -9 7 -7 3 6 -5 15 -2 17 14 13 11 -3 20
-2 20 2 0 3 10 12 23 20 22 14 22 14 3 -8 -11 -11 -16 -24 -13 -28 4 -3 7 -1
7 5 0 6 16 10 38 9 30 -1 36 2 34 16 -3 19 13 23 24 5 4 -7 3 -8 -4 -4 -8 5
-10 2 -6 -8 5 -12 9 -13 19 -3 7 7 13 14 13 17 -1 12 2 20 8 20 3 0 3 -4 -1
-9z m-65 -6 c0 -2 -10 -9 -22 -15 -22 -11 -22 -10 -4 4 21 17 26 19 26 11z
m-150 -29 c0 -3 -4 -8 -10 -11 -5 -3 -10 -1 -10 4 0 6 5 11 10 11 6 0 10 -2
10 -4z m655 -244 c-3 -3 -11 0 -18 7 -9 10 -8 11 6 5 10 -3 15 -9 12 -12z m40
-20 c-3 -3 -11 0 -18 7 -9 10 -8 11 6 5 10 -3 15 -9 12 -12z m-1921 -414 c-5
-7 -2 -9 7 -6 10 4 15 -1 15 -13 0 -12 -4 -15 -10 -9 -6 6 -14 6 -22 -1 -8 -7
-14 -7 -19 1 -4 6 -1 9 6 8 7 -2 14 3 15 10 3 19 4 22 10 22 3 0 2 -5 -2 -12z
m-761 -6 c3 8 6 8 6 2 1 -10 -28 -42 -30 -33 -7 37 -7 40 6 29 10 -8 14 -7 18
2z m58 -15 c-10 -9 -11 -8 -5 6 3 10 9 15 12 12 3 -3 0 -11 -7 -18z m241 15
c3 8 6 7 10 -4 5 -11 2 -15 -10 -13 -9 1 -23 -2 -29 -8 -9 -6 -13 -6 -13 2 0
6 5 11 11 11 5 0 7 6 3 13 -6 9 -4 9 8 -1 13 -10 17 -10 20 0z m741 0 c3 8 6
8 6 2 1 -10 -28 -42 -30 -33 -7 37 -7 40 6 29 10 -8 14 -7 18 2z m58 -15 c-10
-9 -11 -8 -5 6 3 10 9 15 12 12 3 -3 0 -11 -7 -18z m-1146 1 c4 -3 2 -9 -3
-12 -5 -3 -15 1 -21 8 -10 11 -9 14 3 12 9 -1 18 -5 21 -8z m419 1 c3 -3 -5
-5 -19 -5 -13 0 -22 3 -19 7 4 8 30 6 38 -2z m945 -12 c12 -18 12 -18 -10 -3
-18 12 -26 13 -38 3 -14 -10 -14 -10 -4 4 17 21 38 20 52 -4z m66 -176 c3 -5
2 -12 -3 -15 -5 -3 -9 1 -9 9 0 17 3 19 12 6z m43 -133 c-2 -7 3 -12 10 -10 8
1 11 -2 7 -8 -5 -8 -11 -8 -19 -1 -7 6 -17 7 -22 3 -4 -4 -2 1 5 11 16 20 22
22 19 5z m42 -77 c0 -5 8 -12 18 -14 14 -4 14 -5 1 -6 -9 0 -22 6 -29 14 -9
10 -9 15 -1 15 6 0 11 -4 11 -9z m60 -42 c0 -5 -4 -9 -8 -9 -5 0 -9 7 -9 15 0
8 4 12 9 9 4 -3 8 -9 8 -15z m414 -265 c5 -14 4 -15 -9 -4 -17 14 -19 20 -6
20 5 0 12 -7 15 -16z m36 10 c0 -8 -19 -13 -24 -6 -3 5 1 9 9 9 8 0 15 -2 15
-3z m354 -12 c3 -5 -1 -9 -9 -9 -8 0 -15 4 -15 9 0 4 4 8 9 8 6 0 12 -4 15 -8z
m-246 -27 c-3 -3 -9 2 -12 12 -6 14 -5 15 5 6 7 -7 10 -15 7 -18z m127 15 c-3
-5 -12 -10 -18 -10 -7 0 -6 4 3 10 19 12 23 12 15 0z"/>
<path d="M4235 3539 c-4 -6 -4 -13 -1 -16 3 -4 6 -1 6 6 0 7 5 9 12 5 7 -4 8
-3 4 4 -9 15 -13 15 -21 1z"/>
<path d="M4433 3485 c0 -8 4 -12 9 -9 5 3 6 10 3 15 -9 13 -12 11 -12 -6z"/>
<path d="M4580 3380 c-11 -7 -11 -10 -2 -10 8 0 10 -5 6 -12 -5 -9 -3 -9 9 1
9 7 14 17 11 22 -6 11 -6 11 -24 -1z"/>
<path d="M4630 3329 c0 -5 5 -7 10 -4 6 3 10 8 10 11 0 2 -4 4 -10 4 -5 0 -10
-5 -10 -11z"/>
<path d="M4745 3060 c-3 -6 1 -7 9 -4 18 7 21 14 7 14 -6 0 -13 -4 -16 -10z"/>
<path d="M2816 5402 c-2 -4 -1 -14 3 -21 6 -10 10 -9 14 3 6 16 -8 32 -17 18z"/>
<path d="M2983 5325 c0 -8 4 -12 9 -9 5 3 6 10 3 15 -9 13 -12 11 -12 -6z"/>
<path d="M3109 5221 c8 -5 10 -14 6 -22 -6 -11 -5 -11 5 -2 14 12 6 33 -13 33
-8 0 -7 -3 2 -9z"/>
<path d="M1875 4750 c-4 -6 -3 -16 3 -22 13 -13 23 4 13 21 -7 10 -10 10 -16
1z"/>
<path d="M1771 4724 c0 -11 3 -14 6 -6 3 7 2 16 -1 19 -3 4 -6 -2 -5 -13z"/>
<path d="M1987 4729 c7 -7 15 -10 18 -7 3 3 -2 9 -12 12 -14 6 -15 5 -6 -5z"/>
<path d="M2211 2824 c6 -7 16 -11 21 -8 11 7 3 17 -18 20 -12 2 -13 -1 -3 -12z"/>
<path d="M2463 2825 c0 -8 4 -12 9 -9 5 3 6 10 3 15 -9 13 -12 11 -12 -6z"/>
<path d="M2703 2825 c0 -8 4 -12 9 -9 5 3 6 10 3 15 -9 13 -12 11 -12 -6z"/>
<path d="M3340 2726 c0 -2 7 -7 16 -10 8 -3 12 -2 9 4 -6 10 -25 14 -25 6z"/>
<path d="M5130 2290 c-24 -20 -153 -221 -153 -237 0 -7 -4 -13 -8 -13 -5 0 -7
-13 -5 -29 l3 -29 -48 38 c-137 108 -342 98 -473 -25 -16 -15 -64 -78 -106
-141 l-78 -115 0 42 c-2 145 -95 269 -232 307 -8 2 -49 4 -90 4 -89 0 -147
-21 -211 -79 -51 -46 -260 -359 -259 -388 0 -3 0 -6 -1 -7 -6 -21 -11 -48 -12
-68 0 -14 -5 -28 -11 -32 -7 -5 -3 -8 9 -8 16 0 17 -2 6 -9 -13 -8 -13 -12 0
-27 9 -11 9 -15 2 -10 -7 4 -13 2 -13 -3 0 -6 5 -11 12 -11 9 0 9 -3 0 -12
-16 -16 -15 -28 3 -28 9 0 12 -6 8 -17 -5 -13 -3 -15 12 -9 18 7 18 6 0 -14
-11 -12 -15 -20 -10 -18 6 2 11 -1 12 -6 0 -5 8 -13 17 -18 9 -5 14 -14 10
-19 -3 -5 -2 -9 3 -8 18 3 33 -2 33 -11 0 -5 -8 -7 -17 -4 -15 5 -15 4 1 -6
15 -10 20 -9 27 1 7 11 9 10 9 -4 0 -12 4 -16 13 -11 9 6 9 5 0 -8 -15 -17 -7
-29 13 -21 8 3 17 -2 20 -11 3 -9 10 -14 14 -11 14 9 40 -6 33 -19 -4 -6 5 -3
20 7 20 13 25 14 21 3 -6 -16 19 -16 33 -1 4 4 2 5 -6 0 -10 -5 -12 -4 -7 4 4
6 12 9 17 5 5 -3 7 -10 4 -15 -11 -16 28 -10 49 9 16 13 18 14 8 1 -11 -14 -9
-17 13 -16 13 0 22 3 19 8 -3 5 -1 9 5 9 5 0 12 -6 14 -12 4 -10 6 -10 6 0 1
6 12 12 25 12 14 0 28 5 31 10 4 6 11 7 17 4 8 -5 9 -1 4 11 -5 15 -4 16 9 5
8 -7 15 -9 15 -4 0 5 14 18 30 29 16 11 30 26 30 33 0 6 3 12 8 12 4 0 36 43
71 95 36 52 68 95 73 95 5 0 7 4 4 8 -3 5 1 9 9 9 10 0 12 -4 5 -12 -5 -7 -6
-16 -2 -20 4 -5 0 -4 -8 0 -12 7 -13 6 -4 -6 5 -8 10 -27 9 -42 -1 -17 4 -26
10 -23 7 2 12 -2 12 -10 0 -8 -5 -14 -11 -14 -6 -1 0 -7 14 -15 14 -8 19 -14
12 -15 -17 0 11 -30 28 -30 6 0 8 -5 5 -10 -4 -6 -12 -7 -18 -4 -7 4 -1 -5 13
-18 14 -14 37 -28 52 -31 21 -6 25 -11 21 -29 -5 -23 -5 -23 11 -3 10 11 14
14 11 7 -5 -9 -1 -13 11 -11 25 3 55 -11 48 -22 -3 -5 3 -6 13 -2 16 6 17 5 3
-13 -13 -17 -13 -18 1 -7 8 7 28 10 44 7 17 -3 31 0 36 8 6 10 9 8 9 -6 0 -16
2 -16 20 5 12 15 19 18 18 9 -2 -8 4 -15 12 -15 8 0 14 6 12 13 -1 8 2 11 8 7
6 -3 8 -10 6 -14 -3 -4 2 -8 10 -8 8 0 13 6 10 12 -3 8 4 10 21 7 20 -4 24 -2
18 8 -5 8 -4 11 3 6 36 -22 114 50 219 202 46 67 89 120 94 116 6 -3 5 -11 -2
-21 -10 -11 -10 -16 0 -23 9 -5 10 -10 2 -14 -6 -4 -11 -12 -11 -17 0 -6 5 -7
12 -3 7 5 8 3 2 -7 -14 -24 -16 -51 -2 -43 10 5 10 4 1 -6 -10 -11 -10 -17 0
-29 9 -12 9 -13 0 -7 -8 4 -13 1 -13 -8 0 -9 6 -16 13 -16 7 0 8 -3 2 -8 -15
-11 -18 -42 -3 -42 10 0 9 -3 -1 -9 -12 -8 -12 -12 -2 -24 7 -10 8 -17 2 -21
-5 -4 -9 -14 -8 -24 1 -13 10 -17 39 -17 25 0 38 5 38 13 0 7 5 10 10 7 6 -4
8 -10 5 -14 -9 -15 50 2 66 19 9 9 47 60 84 113 64 93 81 113 69 83 -3 -7 2
-16 12 -20 13 -5 14 -9 4 -21 -10 -12 -10 -15 1 -15 11 0 11 -2 -1 -10 -12 -8
-11 -10 8 -10 12 0 22 -5 22 -11 0 -5 5 -7 12 -3 7 4 8 3 4 -5 -6 -9 -11 -9
-22 0 -12 10 -13 9 -8 -5 3 -9 18 -16 33 -17 25 0 25 0 4 -9 -28 -12 -30 -20
-3 -13 14 4 20 0 20 -13 0 -9 3 -14 7 -10 4 3 13 -4 21 -16 7 -13 11 -15 8 -6
-3 10 0 20 6 24 7 4 8 3 4 -4 -4 -7 -2 -12 4 -12 6 0 8 -5 4 -11 -5 -8 1 -10
19 -7 15 3 24 1 21 -4 -3 -5 0 -15 6 -24 10 -11 16 -12 26 -3 11 9 14 8 14 0
0 -7 5 -9 10 -6 8 5 7 12 -2 23 -12 15 -11 16 4 3 10 -7 16 -17 13 -21 -3 -5
-1 -12 5 -15 6 -4 9 -2 8 3 -2 6 2 10 7 10 6 0 9 -4 7 -10 -1 -5 2 -6 8 -3 6
4 9 14 6 24 -4 9 2 5 13 -8 18 -23 19 -23 29 -5 9 14 12 15 12 4 0 -12 3 -11
11 3 8 14 14 15 31 6 18 -10 20 -9 14 6 -5 15 -4 16 9 5 14 -11 19 -7 16 12 0
4 6 5 14 2 8 -4 15 -1 15 6 0 6 5 8 10 5 6 -3 10 -1 10 4 0 6 4 10 9 8 31 -8
257 319 291 423 80 237 -145 472 -385 402 -102 -30 -149 -76 -285 -282 -45
-69 -84 -126 -85 -128 -2 -2 -2 30 -1 72 2 62 7 82 30 116 51 77 61 104 61
160 l0 55 -45 5 -45 5 0 102 c-1 56 -4 105 -8 110 -15 14 -129 9 -147 -7z
m-249 -509 c-10 -6 -10 -10 -1 -16 9 -6 9 -10 -1 -16 -12 -8 -11 -11 1 -19 10
-6 11 -13 5 -17 -9 -7 -11 -18 -6 -38 0 -3 11 0 24 8 34 20 60 16 62 -10 1
-12 -2 -20 -7 -17 -12 7 -6 -29 6 -37 4 -4 4 -9 -2 -13 -5 -3 -32 9 -58 27
l-48 34 -42 -30 c-79 -56 -216 -44 -264 23 -13 18 -16 31 -10 35 5 3 10 1 10
-6 0 -8 5 -7 17 2 13 11 17 11 20 1 3 -6 8 -10 13 -7 4 3 14 -3 21 -13 13 -15
12 -16 -3 -3 -10 7 -18 10 -18 6 0 -4 -7 -2 -15 5 -10 9 -15 9 -15 1 0 -6 5
-12 10 -12 19 -3 25 -5 47 -17 20 -11 22 -10 17 5 -5 15 -4 16 5 3 6 -8 8 -24
6 -35 -3 -11 -2 -14 1 -7 3 6 11 9 17 5 6 -4 8 0 4 10 -4 11 -2 14 8 10 8 -3
12 -10 9 -17 -3 -6 1 -3 9 7 8 9 20 17 26 17 7 0 9 5 6 10 -4 6 -3 10 2 9 26
-4 79 31 66 45 -3 3 -1 6 5 6 5 0 20 16 32 35 12 19 29 35 38 35 13 0 14 -2 3
-9z m746 -103 c-6 -22 -6 -22 8 -4 15 19 15 19 15 -2 0 -20 15 -28 44 -23 5 1
3 -5 -4 -14 -11 -13 -10 -14 5 -9 13 5 16 4 11 -4 -12 -21 -35 -13 -74 24 -20
20 -31 33 -24 29 7 -4 12 0 12 9 0 9 3 16 6 16 4 0 4 -10 1 -22z m-1423 -52
c-3 -9 -10 -16 -15 -16 -5 0 -4 9 3 20 14 22 21 20 12 -4z m76 -326 c8 -5 11
-10 5 -10 -5 0 -17 5 -25 10 -8 5 -10 10 -5 10 6 0 17 -5 25 -10z m1190 -90
c0 -5 -2 -10 -4 -10 -3 0 -8 5 -11 10 -3 6 -1 10 4 10 6 0 11 -4 11 -10z"/>
<path d="M3715 2200 c3 -5 8 -10 11 -10 2 0 4 5 4 10 0 6 -5 10 -11 10 -5 0
-7 -4 -4 -10z"/>
<path d="M4156 2105 c4 -8 8 -15 10 -15 2 0 4 7 4 15 0 8 -4 15 -10 15 -5 0
-7 -7 -4 -15z"/>
<path d="M1427 2085 c-26 -7 -63 -25 -82 -39 -18 -14 -36 -26 -38 -26 -3 0 -3
14 -2 30 l3 31 -77 -3 -76 -3 -62 -90 c-34 -49 -71 -109 -83 -132 -12 -24 -26
-45 -32 -49 -7 -4 -5 -10 3 -15 12 -8 11 -11 -1 -19 -13 -9 -13 -11 0 -20 13
-9 13 -10 0 -10 -13 0 -13 -1 0 -10 13 -9 13 -11 0 -20 -13 -9 -13 -11 0 -20
13 -9 13 -10 0 -10 -13 0 -13 -1 0 -10 13 -9 13 -11 0 -20 -13 -9 -13 -11 0
-20 13 -9 13 -10 0 -10 -13 0 -13 -1 0 -10 13 -9 13 -11 0 -20 -13 -9 -13 -11
0 -20 13 -9 13 -10 0 -10 -13 0 -13 -1 0 -10 13 -9 13 -11 0 -20 -13 -9 -13
-11 0 -20 13 -9 13 -10 0 -10 -13 0 -13 -1 0 -10 13 -9 13 -11 0 -20 -13 -9
-13 -11 0 -20 13 -9 13 -10 0 -10 -13 0 -13 -1 0 -10 13 -9 13 -11 0 -20 -13
-9 -13 -11 0 -20 13 -9 13 -10 0 -10 -13 0 -13 -1 0 -10 13 -9 13 -11 0 -20
-13 -9 -13 -11 0 -20 13 -9 13 -10 0 -10 -13 0 -13 -1 0 -10 13 -9 13 -11 0
-20 -13 -9 -13 -11 0 -20 13 -9 13 -10 0 -10 -13 0 -13 -1 0 -10 13 -9 13 -10
0 -10 -13 0 -13 -1 0 -10 13 -9 13 -10 0 -10 -13 0 -13 -1 0 -10 13 -9 13 -10
0 -10 -13 0 -13 -1 0 -10 13 -9 13 -10 0 -10 -13 0 -13 -1 0 -10 13 -9 13 -10
0 -10 -13 0 -13 -1 0 -10 13 -9 13 -10 0 -10 -13 0 -13 -1 0 -10 13 -9 13 -10
0 -10 -12 0 -13 -2 -1 -9 11 -7 11 -9 0 -14 -12 -5 -12 -6 0 -6 11 -1 11 -4 1
-16 -9 -11 -9 -15 -1 -15 9 0 9 -5 1 -20 -8 -15 -8 -20 1 -20 8 0 8 -4 1 -13
-8 -9 -2 -15 26 -24 34 -11 36 -10 17 4 -17 14 -18 15 -2 9 10 -3 25 -6 33 -6
10 0 12 -5 8 -12 -6 -10 -4 -10 7 -2 8 6 22 10 32 9 9 -2 15 1 11 6 -3 5 -1 9
5 9 6 0 41 43 78 95 37 52 74 95 82 95 8 0 24 8 35 18 17 14 18 14 8 1 -10
-14 -10 -18 2 -22 9 -4 22 3 31 16 14 20 15 21 16 2 0 -11 3 -14 6 -7 2 6 9
10 14 6 5 -3 9 -1 9 5 0 6 6 8 13 5 7 -2 23 5 35 16 12 11 22 18 22 15 0 -17
86 84 149 177 41 59 78 105 83 102 6 -4 6 -10 0 -16 -6 -6 -8 -17 -5 -26 5
-11 2 -13 -8 -7 -11 6 -11 5 -2 -5 6 -7 9 -19 6 -28 -5 -11 -3 -13 8 -7 11 7
12 6 3 -6 -6 -8 -10 -44 -9 -81 1 -47 -1 -65 -9 -61 -7 4 -7 1 1 -7 6 -7 9
-19 6 -28 -4 -9 -2 -13 4 -9 7 5 9 0 6 -13 -3 -11 -10 -17 -17 -13 -6 3 -5 0
2 -8 11 -12 14 -12 21 0 7 10 13 11 30 2 13 -8 21 -8 21 -2 0 7 9 7 25 1 17
-7 25 -6 25 1 0 7 6 6 17 -2 10 -8 14 -9 10 -2 -4 6 -2 15 6 20 16 10 133 175
159 224 17 33 20 57 19 171 l-1 133 60 90 c66 99 119 220 102 237 -29 29 -107
11 -154 -37 l-28 -28 0 32 0 31 -61 0 c-70 0 -76 -5 -135 -102 -20 -32 -39
-58 -43 -58 -4 0 -17 18 -29 39 -58 103 -188 157 -305 126z m-43 -425 c5 5 15
10 21 10 5 0 3 -5 -5 -10 -11 -7 -11 -10 -2 -10 7 0 10 -4 7 -10 -3 -5 0 -10
8 -10 7 0 14 -6 14 -14 0 -29 -91 29 -100 64 -5 19 -3 19 20 -5 18 -18 30 -22
37 -15z m-7 13 c0 -9 -4 -10 -14 -2 -7 6 -13 12 -13 14 0 1 6 2 13 2 8 0 14
-6 14 -14z m-283 -671 c3 -5 -1 -9 -9 -9 -8 0 -12 4 -9 9 3 4 7 8 9 8 2 0 6
-4 9 -8z"/>
<path d="M2528 2095 c-2 -2 -19 -5 -38 -8 -51 -6 -112 -40 -160 -89 -79 -81
-269 -386 -254 -410 3 -4 1 -8 -3 -8 -11 0 -9 -41 2 -60 5 -8 4 -11 -2 -7 -10
6 -10 -3 -4 -76 1 -5 7 -5 14 -1 9 6 9 5 0 -7 -7 -9 -8 -20 -3 -29 5 -8 6 -19
2 -25 -3 -5 2 -4 11 4 16 13 25 2 10 -13 -11 -10 -12 -37 -2 -30 5 3 7 9 5 13
-3 4 1 8 9 8 11 0 11 -5 4 -19 -9 -16 -7 -20 10 -25 13 -3 21 -14 21 -25 0
-17 3 -18 14 -9 11 10 16 8 21 -8 3 -12 11 -21 16 -21 6 0 7 -6 3 -12 -6 -10
-4 -10 8 0 13 10 18 10 24 1 4 -8 3 -9 -4 -5 -8 5 -10 2 -6 -8 3 -9 10 -14 14
-11 5 3 12 0 15 -5 5 -8 14 -5 26 6 19 17 20 17 13 -2 -6 -15 -4 -17 6 -7 11
10 17 9 32 -4 15 -13 20 -14 35 -2 9 8 14 9 10 3 -4 -7 0 -15 9 -18 8 -3 13
-2 10 3 -3 5 1 12 10 15 8 3 12 2 9 -4 -3 -6 -1 -10 4 -10 6 0 11 5 11 11 0 8
6 7 17 -2 14 -12 16 -12 11 2 -4 9 -1 16 8 16 7 0 11 -5 8 -11 -3 -6 1 -3 9 7
15 19 32 24 21 6 -3 -6 12 1 35 16 22 15 41 32 41 38 0 6 3 8 6 4 3 -3 18 9
33 26 38 43 201 285 201 297 0 6 7 10 16 10 11 0 15 -6 11 -20 -3 -11 0 -23 5
-27 6 -3 8 -1 4 5 -3 6 -2 13 3 16 10 7 9 -13 -2 -31 -4 -6 -3 -14 3 -18 6 -4
7 -11 4 -17 -4 -5 4 -4 17 2 23 13 24 12 6 -7 -16 -18 -16 -21 -2 -33 9 -7 13
-15 11 -18 -3 -2 5 -13 17 -23 19 -16 19 -18 3 -12 -13 4 -17 3 -12 -5 4 -7
13 -12 21 -12 8 0 17 -4 20 -10 4 -6 -1 -7 -11 -3 -11 4 -15 3 -11 -4 4 -6 1
-14 -5 -17 -7 -3 -4 -4 7 -3 12 1 21 -4 21 -13 1 -8 2 -21 3 -28 1 -8 6 -10
14 -6 7 5 6 0 -3 -11 -12 -15 -12 -17 -1 -10 11 6 13 4 8 -8 -3 -9 -1 -19 5
-23 7 -5 8 -2 3 6 -5 9 -4 11 3 6 13 -8 9 -19 -49 -144 -22 -46 -39 -89 -39
-97 0 -8 -4 -16 -9 -19 -13 -9 -20 -45 -10 -52 5 -3 8 0 7 8 -2 7 6 13 17 13
11 0 26 4 34 9 9 6 12 5 8 -1 -4 -6 6 -13 23 -15 17 -3 30 0 30 6 0 6 5 4 10
-4 8 -13 10 -12 10 4 0 11 3 16 7 13 13 -14 163 222 224 353 150 324 300 651
315 688 l14 32 -78 0 -79 0 -80 -122 c-44 -68 -88 -138 -98 -157 l-17 -33 -22
48 c-12 27 -42 97 -66 157 l-43 107 -79 0 c-50 0 -77 -4 -73 -10 3 -5 0 -10
-7 -10 -7 -1 -31 -30 -52 -65 l-40 -64 -22 33 c-46 67 -144 121 -233 129 -28
3 -52 3 -53 2z m-73 -419 c13 -13 26 -21 29 -18 3 3 6 -2 6 -11 0 -16 12 -22
33 -18 5 1 6 -3 3 -8 -4 -5 0 -12 6 -15 7 -3 2 -3 -12 0 -42 10 -90 45 -90 64
0 10 -6 21 -12 23 -10 4 -10 6 0 6 7 1 24 -10 37 -23z m-311 -344 c3 -5 -1 -9
-9 -9 -8 0 -12 4 -9 9 3 4 7 8 9 8 2 0 6 -4 9 -8z m126 -112 c0 -5 -2 -10 -4
-10 -3 0 -8 5 -11 10 -3 6 -1 10 4 10 6 0 11 -4 11 -10z"/>
<path d="M2446 1667 c3 -10 9 -15 12 -12 3 3 0 11 -7 18 -10 9 -11 8 -5 -6z"/>
<path d="M5257 1399 c7 -7 15 -10 18 -7 3 3 -2 9 -12 12 -14 6 -15 5 -6 -5z"/>
<path d="M4360 1218 c-12 -8 -12 -9 2 -5 9 3 19 1 22 -6 3 -9 5 -9 5 0 1 18
-13 23 -29 11z"/>
<path d="M2310 1200 c0 -5 5 -10 11 -10 5 0 7 5 4 10 -3 6 -8 10 -11 10 -2 0
-4 -4 -4 -10z"/>
</g>
</svg>
